HIERARCHY
ROOT Hips
{
 OFFSET 0.000000 0.000000 0.000000
 CHANNELS 6 Xposition Yposition Zposition Yrotation Xrotation Zrotation
 JOINT Chest
 {
  OFFSET 0.000000 10.932484 0.001155
  CHANNELS 3 Yrotation Xrotation Zrotation
  JOINT Chest2
  {
   OFFSET 0.000000 12.093805 -0.002099
   CHANNELS 3 Yrotation Xrotation Zrotation
   JOINT Chest3
   {
    OFFSET 0.000000 10.927800 0.000000
    CHANNELS 3 Yrotation Xrotation Zrotation
    JOINT Chest4
    {
     OFFSET 0.000000 10.927800 0.000000
     CHANNELS 3 Yrotation Xrotation Zrotation
     JOINT Neck
     {
      OFFSET 0.000000 15.355144 0.000000
      CHANNELS 3 Yrotation Xrotation Zrotation
      JOINT Head
      {
       OFFSET 0.000000 10.170446 -0.004991
       CHANNELS 3 Yrotation Xrotation Zrotation
       End Site
       {
        OFFSET 0.000000 19.463738 -0.002607
       }
      }
     }
     JOINT RightCollar
     {
      OFFSET -3.333126 8.566406 0.000000
      CHANNELS 3 Yrotation Xrotation Zrotation
      JOINT RightShoulder
      {
       OFFSET -15.529370 0.000000 0.000000
       CHANNELS 3 Yrotation Xrotation Zrotation
       JOINT RightElbow
       {
        OFFSET 0.000000 -33.145213 0.000000
        CHANNELS 3 Yrotation Xrotation Zrotation
        JOINT RightWrist
        {
         OFFSET 0.000000 -27.120720 -0.000000
         CHANNELS 3 Yrotation Xrotation Zrotation
         End Site
         {
          OFFSET 0.000000 -20.306483 0.000000
         }
        }
       }
      }
     }
     JOINT LeftCollar
     {
      OFFSET 3.333126 8.566406 0.000000
      CHANNELS 3 Yrotation Xrotation Zrotation
      JOINT LeftShoulder
      {
       OFFSET 15.529370 0.000000 0.000000
       CHANNELS 3 Yrotation Xrotation Zrotation
       JOINT LeftElbow
       {
        OFFSET 0.000000 -33.145213 0.000000
        CHANNELS 3 Yrotation Xrotation Zrotation
        JOINT LeftWrist
        {
         OFFSET 0.000000 -27.120720 -0.000000
         CHANNELS 3 Yrotation Xrotation Zrotation
         End Site
         {
          OFFSET 0.000000 -20.306483 0.000000
         }
        }
       }
      }
     }
    }
   }
  }
 }
 JOINT RightHip
 {
  OFFSET -8.869179 -0.005661 -0.000578
  CHANNELS 3 Yrotation Xrotation Zrotation
  JOINT RightKnee
  {
   OFFSET 0.000000 -45.835245 0.000547
   CHANNELS 3 Yrotation Xrotation Zrotation
   JOINT RightAnkle
   {
    OFFSET 0.000000 -44.890236 0.000924
    CHANNELS 3 Yrotation Xrotation Zrotation
    JOINT RightToe
    {
     OFFSET 0.000000 -8.082775 18.351045
     CHANNELS 3 Yrotation Xrotation Zrotation
     End Site
     {
      OFFSET 0.000000 -1.681997 7.345339
     }
    }
   }
  }
 }
 JOINT LeftHip
 {
  OFFSET 8.869179 -0.005661 -0.000578
  CHANNELS 3 Yrotation Xrotation Zrotation
  JOINT LeftKnee
  {
   OFFSET 0.000000 -45.835245 0.000547
   CHANNELS 3 Yrotation Xrotation Zrotation
   JOINT LeftAnkle
   {
    OFFSET 0.000000 -44.890236 0.000924
    CHANNELS 3 Yrotation Xrotation Zrotation
    JOINT LeftToe
    {
     OFFSET 0.000000 -8.082775 18.351045
     CHANNELS 3 Yrotation Xrotation Zrotation
     End Site
     {
      OFFSET 0.000000 -1.681997 7.345339
     }
    }
   }
  }
 }
}
MOTION
Frames: 16
Frame Time: 0.008333
306.566349 53.572999 91.611665 -51.276848 -25.935887 -0.323198 -0.460112 15.692028 -0.272138 -0.173914 6.963168 -0.406191 -0.173914 6.963168 -0.406191 -0.125626 5.222494 -0.302277 -4.439791 12.023861 -1.274700 -7.944180 -13.803825 -0.539583 -5.848935 1.258386 6.034449 26.046921 -30.593140 -27.934267 10.732434 -34.093011 7.811359 34.131223 -4.718379 -23.315284 0.856797 -0.314051 -5.562660 -23.374984 -32.144243 33.816140 12.744401 -27.597502 -14.752371 -27.237626 -6.536351 16.029603 -20.525990 -62.150433 5.403379 -176.266888 74.654330 174.604562 3.048397 -16.111970 -2.019903 -0.012740 0.375499 -0.010981 15.130255 -64.036993 1.613505 -175.991097 65.502371 -172.410631 4.016021 -23.416234 3.873730 -0.144243 -1.118883 -0.076468
306.565306 53.572843 91.612117 -51.279606 -25.939157 -0.328556 -0.457145 15.695319 -0.275207 -0.172705 6.964206 -0.407849 -0.172705 6.964206 -0.407849 -0.124701 5.223273 -0.303532 -4.449893 12.034627 -1.280951 -7.960368 -13.783808 -0.547856 -5.845611 1.255512 6.034640 26.023218 -30.605517 -27.920970 10.720214 -34.083742 7.824544 34.144139 -4.731235 -23.318295 0.854234 -0.320039 -5.564304 -23.380802 -32.141405 33.823908 12.723593 -27.572585 -14.732690 -27.224136 -6.571068 16.043393 -20.528768 -62.145033 5.404965 -176.279011 74.655110 174.598922 3.051689 -16.112444 -2.024261 -0.012919 0.378196 -0.010884 15.113461 -64.033284 1.633474 -175.990795 65.500640 -172.413090 4.033166 -23.422634 3.869213 -0.142803 -1.118252 -0.075558
306.565598 53.572517 91.613027 -51.277918 -25.939725 -0.332493 -0.458554 15.693652 -0.279207 -0.171535 6.964734 -0.409311 -0.171535 6.964734 -0.409311 -0.123807 5.223669 -0.304640 -4.459779 12.049032 -1.287362 -7.975921 -13.757058 -0.556743 -5.843294 1.259405 6.035717 26.010017 -30.616178 -27.911110 10.706047 -34.071502 7.831602 34.152395 -4.742325 -23.322254 0.855038 -0.317745 -5.565937 -23.393040 -32.141115 33.824861 12.736139 -27.577185 -14.728524 -27.226889 -6.565790 16.047134 -20.535919 -62.142825 5.407853 -176.310038 74.655366 174.570184 3.048225 -16.115043 -2.029201 -0.012032 0.382226 -0.007921 15.098520 -64.033376 1.649876 -175.988280 65.500459 -172.413888 4.007427 -23.423274 3.883967 -0.143977 -1.118542 -0.075991
306.566254 53.571846 91.613082 -51.271721 -25.937170 -0.337743 -0.464338 15.687986 -0.284890 -0.171017 6.964395 -0.409794 -0.171017 6.964395 -0.409794 -0.123414 5.223414 -0.305008 -4.470745 12.062143 -1.293987 -7.993500 -13.732679 -0.565504 -5.839543 1.268405 6.034655 25.997166 -30.623092 -27.905379 10.689068 -34.059547 7.840531 34.157290 -4.758867 -23.341747 0.858953 -0.310663 -5.569818 -23.402169 -32.138803 33.830479 12.716373 -27.557000 -14.704287 -27.214014 -6.596066 16.054088 -20.546905 -62.144274 5.411317 -176.311716 74.656895 174.567594 3.074675 -16.116883 -2.036695 -0.012466 0.386285 -0.006460 15.089764 -64.034731 1.654148 -175.993461 65.502207 -172.421706 4.017218 -23.429936 3.882398 -0.142946 -1.115010 -0.073779
306.567525 53.572008 91.612181 -51.264561 -25.932811 -0.343658 -0.470687 15.683539 -0.288955 -0.171452 6.965319 -0.411133 -0.171452 6.965319 -0.411133 -0.123724 5.224108 -0.306006 -4.479259 12.072914 -1.301087 -8.006289 -13.712764 -0.576080 -5.830606 1.274963 6.035052 25.977201 -30.631042 -27.898434 10.674990 -34.060190 7.847971 34.159902 -4.771421 -23.347990 0.865282 -0.309541 -5.574931 -23.411820 -32.140620 33.836018 12.718201 -27.562918 -14.694851 -27.209472 -6.599952 16.048342 -20.554766 -62.146215 5.415412 -176.307608 74.657794 174.578563 3.046072 -16.119766 -2.032885 -0.013012 0.388055 -0.005648 15.070164 -64.036311 1.666368 -176.003320 65.505290 -172.441726 4.079368 -23.438773 3.855912 -0.133940 -1.112805 -0.067743
306.569165 53.572447 91.614607 -51.266581 -25.935754 -0.345591 -0.468834 15.687395 -0.294327 -0.171255 6.965501 -0.412426 -0.171255 6.965501 -0.412426 -0.123561 5.224245 -0.306977 -4.486618 12.081771 -1.306352 -8.017734 -13.696341 -0.583529 -5.819378 1.280129 6.039834 25.963871 -30.634858 -27.899565 10.661394 -34.053920 7.854146 34.163535 -4.785077 -23.359321 0.870488 -0.308764 -5.568703 -23.412897 -32.141344 33.835212 12.696677 -27.537041 -14.679120 -27.201733 -6.633437 16.062512 -20.559252 -62.143988 5.417345 -176.328094 74.657317 174.557681 3.037964 -16.118935 -2.032380 -0.013576 0.388206 -0.005588 15.067006 -64.033460 1.676517 -175.989144 65.504673 -172.427029 4.009554 -23.439724 3.892962 -0.138942 -1.111069 -0.070964
306.569800 53.574009 91.615201 -51.266801 -25.939543 -0.353126 -0.465862 15.689340 -0.297164 -0.170320 6.965862 -0.413352 -0.170320 6.965862 -0.413352 -0.122850 5.224515 -0.307681 -4.495272 12.093730 -1.309588 -8.032390 -13.673999 -0.586738 -5.818476 1.288662 6.040992 25.956910 -30.644362 -27.891368 10.649411 -34.047272 7.853349 34.167638 -4.802925 -23.359429 0.872088 -0.303465 -5.560442 -23.410022 -32.147314 33.834288 12.701428 -27.540638 -14.680691 -27.199997 -6.630964 16.064493 -20.571340 -62.135904 5.427371 -176.310983 74.663788 174.571046 3.077321 -16.115880 -2.039868 -0.012539 0.389260 -0.005518 15.067715 -64.032710 1.680243 -175.988476 65.504238 -172.417155 3.968010 -23.434825 3.913773 -0.141382 -1.113721 -0.072158
306.572018 53.574967 91.617106 -51.265317 -25.941715 -0.357406 -0.466243 15.688935 -0.296992 -0.170348 6.966079 -0.413616 -0.170348 6.966079 -0.413616 -0.122868 5.224678 -0.307878 -4.502555 12.103751 -1.317584 -8.042476 -13.655575 -0.599504 -5.816412 1.298655 6.034171 25.947508 -30.653271 -27.882268 10.640898 -34.042476 7.853282 34.173919 -4.812103 -23.366704 0.877020 -0.299863 -5.567748 -23.413530 -32.147749 33.839464 12.672932 -27.515980 -14.664145 -27.187957 -6.661551 16.080480 -20.571922 -62.130876 5.426864 -176.283390 74.666672 174.600669 3.052689 -16.117867 -2.028456 -0.013472 0.389904 -0.007661 15.072080 -64.030730 1.679299 -175.999267 65.505428 -172.426814 3.971814 -23.432126 3.914863 -0.139259 -1.117661 -0.068916
306.574515 53.576352 91.619937 -51.261462 -25.946308 -0.360197 -0.468111 15.692027 -0.300354 -0.171536 6.966911 -0.414183 -0.171536 6.966911 -0.414183 -0.123751 5.225303 -0.308290 -4.505431 12.112062 -1.322398 -8.045572 -13.640318 -0.607964 -5.813006 1.307118 6.028000 25.933869 -30.664084 -27.875092 10.637186 -34.039094 7.853705 34.171478 -4.820500 -23.371360 0.879741 -0.297940 -5.574395 -23.411049 -32.147772 33.843819 12.675582 -27.526489 -14.663564 -27.181981 -6.662757 16.086224 -20.561227 -62.127901 5.407287 -176.290340 74.669185 174.597462 3.080705 -16.114991 -2.036492 -0.011879 0.389500 -0.005021 15.087177 -64.024357 1.669486 -176.013686 65.508667 -172.436468 3.934479 -23.432219 3.936268 -0.142008 -1.116291 -0.068604
306.576579 53.577993 91.621420 -51.256853 -25.948993 -0.363486 -0.471377 15.691306 -0.303935 -0.171870 6.967003 -0.414960 -0.171870 6.967003 -0.414960 -0.123992 5.225372 -0.308867 -4.507758 12.122716 -1.329217 -8.046670 -13.620851 -0.620618 -5.807573 1.316046 6.019741 25.925775 -30.678873 -27.869975 10.637109 -34.025737 7.854965 34.160831 -4.827913 -23.379755 0.884303 -0.293132 -5.574237 -23.405883 -32.147171 33.843431 12.645802 -27.508030 -14.644496 -27.154462 -6.697302 16.099661 -20.558138 -62.125703 5.401251 -176.292247 74.671188 174.595684 3.088330 -16.110764 -2.037248 -0.012073 0.387856 -0.003330 15.092468 -64.019540 1.666383 -176.016193 65.512459 -172.437543 3.919273 -23.431623 3.947260 -0.140316 -1.114945 -0.067548
306.579001 53.580203 91.622834 -51.251129 -25.952681 -0.368538 -0.473988 15.691392 -0.306727 -0.172308 6.967867 -0.415216 -0.172308 6.967867 -0.415216 -0.124317 5.226020 -0.309054 -4.510767 12.134605 -1.335742 -8.049144 -13.599050 -0.632496 -5.805333 1.320271 6.018125 25.912476 -30.687233 -27.861833 10.642171 -34.019246 7.851050 34.161799 -4.840504 -23.384914 0.890469 -0.287145 -5.574717 -23.411822 -32.148442 33.845492 12.652800 -27.513523 -14.649072 -27.146816 -6.706460 16.103918 -20.559607 -62.119461 5.398577 -176.284565 74.675672 174.603666 3.081632 -16.107287 -2.034552 -0.012160 0.386485 -0.002215 15.095350 -64.011867 1.659289 -176.025457 65.516728 -172.449155 3.964960 -23.434921 3.935885 -0.140351 -1.114491 -0.066537
306.581098 53.582017 91.624149 -51.246193 -25.959668 -0.376453 -0.471783 15.690747 -0.305060 -0.171535 6.967478 -0.415230 -0.171535 6.967478 -0.415230 -0.123737 5.225728 -0.309073 -4.515094 12.147713 -1.341901 -8.054245 -13.574913 -0.643187 -5.814914 1.335656 6.018756 25.909601 -30.700670 -27.858719 10.650249 -34.007127 7.856775 34.160824 -4.846194 -23.400337 0.889680 -0.277776 -5.573401 -23.407162 -32.152056 33.847031 12.625081 -27.484786 -14.639368 -27.120960 -6.749679 16.125311 -20.556794 -62.108652 5.392577 -176.279758 74.679436 174.615619 3.061242 -16.106861 -2.029493 -0.012419 0.386456 -0.002909 15.099973 -64.006049 1.654505 -176.022289 65.516333 -172.442575 3.990740 -23.433081 3.932406 -0.139685 -1.117258 -0.065211
306.582417 53.583361 91.625641 -51.242706 -25.967379 -0.382938 -0.470029 15.693967 -0.302835 -0.171656 6.967901 -0.415331 -0.171656 6.967901 -0.415331 -0.123827 5.226045 -0.309148 -4.517306 12.160735 -1.349111 -8.054865 -13.551080 -0.656772 -5.816419 1.347333 6.014710 25.903884 -30.710753 -27.859837 10.651102 -34.000414 7.860081 34.151920 -4.856571 -23.404272 0.890927 -0.275236 -5.575617 -23.401262 -32.154533 33.849291 12.626655 -27.485089 -14.649301 -27.111590 -6.763811 16.134587 -20.546338 -62.098261 5.382999 -176.294150 74.682861 174.604325 3.077054 -16.106007 -2.032339 -0.011048 0.387465 -0.001167 15.105926 -63.999241 1.650188 -176.022150 65.516118 -172.435119 3.980577 -23.431032 3.939820 -0.141404 -1.118730 -0.064308
306.584430 53.584511 91.626068 -51.237880 -25.969579 -0.386864 -0.470856 15.692513 -0.306139 -0.171249 6.968098 -0.416069 -0.171249 6.968098 -0.416069 -0.123513 5.226193 -0.309705 -4.518989 12.173258 -1.355093 -8.055020 -13.528123 -0.668206 -5.812256 1.353497 6.020985 25.903170 -30.713325 -27.870857 10.650161 -33.993688 7.865581 34.142167 -4.869389 -23.412329 0.891065 -0.273885 -5.571133 -23.390765 -32.155343 33.849846 12.600465 -27.456246 -14.642629 -27.086636 -6.811086 16.153615 -20.535176 -62.095271 5.373479 -176.288616 74.684967 174.614115 3.067589 -16.104808 -2.028346 -0.010666 0.387177 0.000425 15.121387 -63.995237 1.635820 -176.029457 65.518841 -172.439439 4.006225 -23.433929 3.932396 -0.140422 -1.116919 -0.060724
306.586975 53.585362 91.630673 -51.238455 -25.977968 -0.386843 -0.466849 15.698897 -0.309060 -0.171684 6.968084 -0.417340 -0.171684 6.968084 -0.417340 -0.123825 5.226183 -0.310652 -4.521494 12.186814 -1.359632 -8.057317 -13.503135 -0.676600 -5.808675 1.358351 6.021431 25.899803 -30.715898 -27.868002 10.651908 -33.987577 7.864127 34.132188 -4.878092 -23.421282 0.889685 -0.273144 -5.568300 -23.382752 -32.153263 33.848987 12.608030 -27.462508 -14.654156 -27.077738 -6.816196 16.160442 -20.523327 -62.086965 5.361160 -176.294980 74.686815 174.604537 3.071831 -16.105621 -2.025651 -0.009649 0.388475 0.000936 15.152754 -63.986882 1.613311 -176.025413 65.517274 -172.422756 3.941195 -23.430733 3.963882 -0.147424 -1.117337 -0.060974
306.588002 53.586057 91.631018 -51.233754 -25.978377 -0.391761 -0.467312 15.697042 -0.312200 -0.171617 6.967867 -0.418053 -0.171617 6.967867 -0.418053 -0.123766 5.226021 -0.311187 -4.523540 12.199296 -1.360515 -8.060335 -13.479953 -0.678149 -5.803967 1.370178 6.022721 25.903370 -30.725161 -27.874325 10.645766 -33.977078 7.866564 34.130105 -4.890202 -23.430519 0.887721 -0.269926 -5.562028 -23.373820 -32.154152 33.849206 12.580709 -27.436642 -14.639224 -27.052765 -6.856434 16.170567 -20.527716 -62.086790 5.362388 -176.303784 74.687835 174.594358 3.089364 -16.102415 -2.028218 -0.008901 0.387261 0.000680 15.173477 -63.984425 1.595522 -176.036767 65.520350 -172.425010 3.960457 -23.433807 3.955311 -0.146119 -1.114733 -0.058041
